<?xml version="1.0" encoding="UTF-8"?>
<!DOCTYPE svg PUBLIC "-//W3C//DTD SVG 1.1//EN" "http://www.w3.org/Graphics/SVG/1.1/DTD/svg11.dtd">
<!-- Creator: CorelDRAW X7 -->
<svg xmlns="http://www.w3.org/2000/svg" xml:space="preserve" width="4627px" height="4711px" version="1.1" style="shape-rendering:geometricPrecision; text-rendering:geometricPrecision; image-rendering:optimizeQuality; fill-rule:evenodd; clip-rule:evenodd"
viewBox="0 0 4627 4711"
 xmlns:xlink="http://www.w3.org/1999/xlink">
 <defs>
  <style type="text/css">
   <![CDATA[
    .str0 {stroke:#009485;stroke-width:35.4331}
    .str3 {stroke:#FEFEFE;stroke-width:2.36221}
    .str2 {stroke:#373435;stroke-width:2.36221}
    .str1 {stroke:#00587A;stroke-width:2.36221}
    .str4 {stroke:#FEFEFE;stroke-width:0.9}
    .fil0 {fill:none}
    .fil2 {fill:#FEFEFE}
    .fil1 {fill:#00587A}
   ]]>
  </style>
    <clipPath id="id0">
     <path d="M0 2055c4,-5 9,-11 12,-18 10,-4 19,-11 28,-19l94 -84c3,-4 6,-7 9,-10 4,-2 8,-5 11,-7 16,-8 28,-20 38,-33l125 -103c3,-3 7,-7 10,-10l8 -6c1,-1 2,-2 3,-2 11,-5 22,-12 32,-21l102 -95c6,-6 12,-12 16,-19 7,-4 13,-8 19,-13l274 -242c3,-2 6,-5 8,-7 10,-5 20,-11 29,-19l613 -533c8,-7 14,-14 20,-21 2,-2 5,-4 8,-6 12,-7 23,-16 31,-27 5,-3 10,-6 14,-10l277 -240c5,-4 9,-8 12,-12 14,-8 27,-18 37,-32l1 -1c4,-2 8,-5 12,-8l341 -283c8,-7 15,-15 21,-24 4,-2 8,-5 11,-8l72 -57c5,-2 11,-4 16,-7l3 -1c21,-11 38,-28 50,-47l16 -13c3,-2 6,-5 8,-8 9,-2 18,-5 26,-9l93 133c8,12 19,22 30,30 4,11 10,22 18,32l104 137c8,10 16,18 26,25 4,7 8,15 13,22l108 140c3,4 7,8 11,12l-52 58c-6,7 -11,14 -16,22 -5,5 -10,10 -14,16 -14,16 -24,34 -28,54 -20,24 -30,54 -28,84 -1,9 -2,17 -2,25 -2,8 -2,16 -2,23l0 3c0,9 1,17 2,25 -1,10 -1,21 0,31l10 82c2,18 8,35 17,50 1,11 4,22 9,33 1,16 7,32 16,47 1,3 2,5 4,8 2,5 6,10 9,14 1,3 2,7 4,10 1,2 2,5 3,7 2,5 5,9 7,13 4,7 9,14 15,20 2,2 3,4 5,6l0 1c6,11 13,21 21,29 4,5 8,10 13,14 1,2 2,3 4,4 8,9 17,16 27,21 11,12 23,21 37,28 15,14 33,24 54,30 2,0 5,1 8,2 13,8 29,15 45,17l61 11c10,1 20,2 29,1 15,4 31,5 47,3 10,-1 21,-3 31,-6l0 0c13,0 26,-2 37,-6 5,-1 10,-1 15,-2 21,0 42,-6 62,-18l35 -22 0 0c8,-4 17,-8 24,-14l3 -2c9,-7 16,-14 22,-22l31 -13c3,6 7,11 11,16l85 108c3,5 7,9 12,13 6,13 14,25 25,35 6,6 11,11 17,15 4,7 8,14 13,20l70 94c8,10 17,19 27,25 5,9 11,17 18,25 4,10 10,19 17,28l88 108c4,5 9,10 14,15 4,9 10,18 16,26l110 139c7,9 15,16 24,22 3,6 7,12 11,18l117 159c9,12 20,22 32,30 4,8 9,17 15,24l109 134c4,5 9,9 14,14 4,8 9,16 15,24l190 237c7,7 13,14 21,19 4,9 8,16 14,24l166 213c-8,8 -15,16 -21,26 -15,5 -30,12 -43,23l-87 76c-7,6 -13,12 -18,19 -15,7 -28,18 -39,30 -9,4 -19,10 -28,17l-202 162c-8,6 -14,13 -20,20 -5,3 -11,6 -16,10l-384 304c-8,6 -15,13 -20,21 -12,4 -23,11 -33,19l-364 295c-7,4 -14,9 -21,14l-282 225c-8,6 -15,14 -21,21 -9,5 -18,10 -26,16l-247 199c-5,4 -10,8 -14,13 -6,3 -12,7 -18,12l-357 284c-4,3 -8,7 -12,10 -7,4 -14,9 -20,15l-90 77c-1,-2 -3,-4 -5,-6l-262 -312c-7,-8 -14,-14 -22,-20 -4,-8 -9,-16 -15,-23l-332 -395c-6,-6 -12,-12 -18,-17 -3,-5 -7,-11 -11,-16l-325 -395c-10,-12 -21,-21 -34,-28 -4,-6 -8,-12 -13,-18l-142 -166c-6,-6 -12,-12 -18,-17 -3,-5 -7,-11 -11,-16l-184 -227c-7,-9 -15,-16 -24,-22 -7,-12 -15,-22 -26,-30 -1,-2 -3,-4 -5,-5 -4,-8 -9,-16 -15,-23l-207 -247c-4,-5 -7,-9 -11,-12 -11,-21 -28,-38 -49,-49 -3,-7 -8,-14 -13,-21l-65 -81c-6,-8 -13,-14 -20,-20 -4,-6 -8,-12 -13,-17l-93 -107c-4,-6 -10,-11 -15,-15 -4,-8 -9,-15 -14,-22l-101 -120c-6,-7 -12,-13 -19,-19 -4,-7 -9,-14 -14,-20l-142 -164c-1,-2 -3,-4 -5,-6z"/>
    </clipPath>
 </defs>
 <g id="Camada_x0020_1">
  <metadata id="CorelCorpID_0Corel-Layer"/>
  <g id="_3066177670128">
   <g style="clip-path:url(#id0)">
    <image x="-175" y="-275" width="4992" height="7488" xlink:href="illustration6_Images\illustration6_ImgID1.png"/>
   </g>
   <path class="fil0 str0" d="M4 2052c0,0 2373,-2080 2398,-2046 24,34 386,512 411,529 25,18 -256,84 -105,530 94,209 257,276 461,256 78,-17 141,-54 201,-100 417,526 840,1057 1257,1583 -796,634 -1592,1268 -2388,1902 -745,-884 -1490,-1769 -2235,-2654z"/>
   <g>
    <circle class="fil1 str1" cx="3158" cy="835" r="364"/>
    <g>
     <line class="fil0 str2" x1="3282" y1="749" x2="3376" y2= "884" />
     <circle class="fil2 str3" cx="3308" cy="590" r="14"/>
     <circle class="fil2 str3" cx="3132" cy="1143" r="14"/>
     <circle class="fil2 str3" cx="3041" cy="658" r="14"/>
     <circle class="fil2 str3" cx="3370" cy="879" r="14"/>
     <circle class="fil2 str3" cx="3369" cy="946" r="14"/>
     <circle class="fil2 str3" cx="3068" cy="875" r="14"/>
     <circle class="fil2 str3" cx="2929" cy="842" r="14"/>
     <circle class="fil2 str3" cx="3406" cy="798" r="14"/>
     <circle class="fil2 str3" cx="3176" cy="521" r="14"/>
     <circle class="fil2 str3" cx="3139" cy="613" r="14"/>
     <circle class="fil2 str3" cx="3199" cy="1130" r="14"/>
     <circle class="fil2 str3" cx="3270" cy="754" r="14"/>
     <circle class="fil2 str3" cx="3184" cy="941" r="15"/>
     <polyline class="fil0 str3" points="3132,1143 3199,1130 3369,946 3370,879 3406,798 3308,590 3176,521 3139,613 3041,658 2929,842 3068,875 3129,1146 "/>
     <path class="fil0 str3" d="M3132 1157l61 -218 77 -185 -234 -102 39 220 109 66 172 8 -81 -194 26 -158c0,0 -158,20 -153,20 4,1 54,523 54,523"/>
     <line class="fil0 str3" x1="3260" y1="756" x2="2920" y2= "846" />
     <line class="fil0 str3" x1="3414" y1="800" x2="3144" y2= "613" />
     <line class="fil0 str3" x1="3282" y1="749" x2="3376" y2= "884" />
     <polygon class="fil2 str4" points="2939,830 2944,837 3061,806 3038,673 3035,673 "/>
     <path class="fil2 str4" d="M3199 930c2,2 2,4 3,7 50,2 100,4 151,7 -25,-59 -50,-118 -74,-177 -5,3 -9,3 -13,2 -23,54 -45,108 -67,161z"/>
    </g>
   </g>
  </g>
 </g>
</svg>
