<?xml version="1.0" encoding="UTF-8"?>
<!DOCTYPE svg PUBLIC "-//W3C//DTD SVG 1.1//EN" "http://www.w3.org/Graphics/SVG/1.1/DTD/svg11.dtd">
<!-- Creator: CorelDRAW X7 -->
<svg xmlns="http://www.w3.org/2000/svg" xml:space="preserve" width="21120px" height="7933px" version="1.1" style="shape-rendering:geometricPrecision; text-rendering:geometricPrecision; image-rendering:optimizeQuality; fill-rule:evenodd; clip-rule:evenodd"
viewBox="0 0 21120 7933"
 xmlns:xlink="http://www.w3.org/1999/xlink">
 <defs>
  <style type="text/css">
   <![CDATA[
    .str2 {stroke:#FEFEFE;stroke-width:35.4331}
    .str1 {stroke:#373435;stroke-width:35.4331}
    .str0 {stroke:#00587A;stroke-width:2.3622}
    .str3 {stroke:#008891;stroke-width:0.9}
    .fil1 {fill:none}
    .fil2 {fill:#FEFEFE}
    .fil0 {fill:#00587A}
    .fil3 {fill:#008891}
   ]]>
  </style>
 </defs>
 <g id="Camada_x0020_1">
  <metadata id="CorelCorpID_0Corel-Layer"/>
  <g id="_3066113948608">
   <path class="fil0" d="M2007 7514l0 -121c-61,94 -150,141 -267,141 -76,0 -146,-21 -209,-63 -64,-42 -113,-100 -149,-175 -35,-75 -52,-161 -52,-259 0,-95 16,-181 47,-258 32,-78 80,-137 143,-178 63,-42 134,-62 213,-62 57,0 108,12 153,36 45,25 81,56 110,95l0 -473 161 0 0 1317 -150 0zm-512 -476c0,122 26,213 78,273 51,60 112,90 183,90 70,0 130,-28 180,-86 49,-58 74,-146 74,-264 0,-130 -25,-226 -75,-287 -51,-61 -113,-91 -187,-91 -72,0 -132,29 -180,88 -48,58 -73,151 -73,277zm1542 356c-60,51 -118,87 -174,108 -55,21 -115,32 -178,32 -105,0 -186,-26 -242,-77 -57,-51 -85,-116 -85,-195 0,-47 11,-90 32,-128 22,-39 49,-69 84,-93 34,-23 73,-41 116,-53 32,-8 80,-16 144,-24 131,-15 227,-34 289,-55 1,-23 1,-37 1,-42 0,-66 -15,-112 -46,-139 -41,-37 -103,-55 -185,-55 -76,0 -132,14 -168,40 -37,27 -64,74 -81,142l-158 -22c14,-68 38,-122 71,-164 33,-42 81,-74 143,-96 63,-23 135,-34 217,-34 82,0 148,9 200,29 51,19 88,43 112,72 24,29 41,66 51,110 5,28 8,78 8,149l0 215c0,149 3,244 10,284 6,41 20,79 39,116l-169 0c-16,-34 -27,-74 -31,-120zm-13 -359c-59,24 -147,45 -265,61 -67,10 -114,20 -141,32 -28,12 -49,30 -64,52 -15,23 -23,49 -23,77 0,43 16,79 49,107 33,29 81,43 144,43 62,0 117,-14 166,-41 48,-27 84,-64 107,-111 17,-36 26,-90 26,-161l1 -59zm1028 479l0 -121c-60,94 -149,141 -266,141 -76,0 -146,-21 -210,-63 -63,-42 -113,-100 -148,-175 -35,-75 -52,-161 -52,-259 0,-95 15,-181 47,-258 32,-78 79,-137 143,-178 63,-42 134,-62 212,-62 58,0 109,12 154,36 45,25 81,56 109,95l0 -473 162 0 0 1317 -151 0zm-511 -476c0,122 26,213 78,273 51,60 112,90 182,90 71,0 131,-28 181,-86 49,-58 74,-146 74,-264 0,-130 -25,-226 -76,-287 -50,-61 -112,-91 -186,-91 -72,0 -132,29 -181,88 -48,58 -72,151 -72,277zm857 -2c0,-176 49,-306 148,-391 82,-71 182,-106 300,-106 131,0 238,43 321,129 84,85 125,204 125,355 0,122 -18,219 -55,289 -37,70 -90,125 -161,164 -70,39 -147,58 -230,58 -134,0 -242,-43 -324,-128 -83,-86 -124,-209 -124,-370zm166 1c0,122 27,213 80,273 54,61 121,91 202,91 80,0 147,-30 201,-91 53,-61 80,-154 80,-279 0,-117 -27,-206 -81,-267 -54,-61 -120,-91 -200,-91 -81,0 -148,30 -202,91 -53,60 -80,151 -80,273zm854 192l160 -26c8,64 34,113 75,147 41,34 98,51 172,51 74,0 130,-15 166,-45 36,-30 54,-66 54,-106 0,-37 -16,-66 -49,-86 -22,-15 -78,-33 -165,-55 -119,-30 -200,-56 -246,-78 -46,-22 -81,-52 -104,-90 -24,-39 -36,-81 -36,-128 0,-42 10,-82 29,-118 20,-36 46,-66 80,-90 25,-18 59,-34 102,-47 44,-13 90,-19 140,-19 75,0 140,11 197,32 56,22 98,51 125,88 27,37 45,86 55,148l-158 22c-7,-49 -28,-88 -62,-116 -34,-28 -83,-42 -146,-42 -73,0 -126,13 -158,37 -32,25 -47,53 -47,86 0,21 6,40 19,57 13,17 34,31 62,43 16,6 64,20 143,41 114,31 193,56 239,75 45,19 81,48 106,85 26,37 39,83 39,138 0,53 -15,104 -47,152 -32,47 -77,84 -136,110 -59,26 -127,39 -201,39 -124,0 -219,-26 -284,-77 -65,-52 -106,-128 -124,-228zm1607 165c-60,51 -118,87 -173,108 -56,21 -115,32 -179,32 -105,0 -186,-26 -242,-77 -56,-51 -85,-116 -85,-195 0,-47 11,-90 32,-128 22,-39 50,-69 84,-93 35,-23 73,-41 116,-53 32,-8 80,-16 144,-24 131,-15 228,-34 289,-55 1,-23 1,-37 1,-42 0,-66 -15,-112 -46,-139 -41,-37 -103,-55 -184,-55 -77,0 -133,14 -169,40 -37,27 -63,74 -81,142l-158 -22c14,-68 38,-122 71,-164 33,-42 81,-74 144,-96 62,-23 134,-34 217,-34 81,0 148,9 199,29 51,19 88,43 112,72 24,29 41,66 51,110 5,28 8,78 8,149l0 215c0,149 3,244 10,284 6,41 20,79 39,116l-169 0c-16,-34 -26,-74 -31,-120zm-13 -359c-59,24 -147,45 -265,61 -67,10 -114,20 -141,32 -28,12 -49,30 -64,52 -15,23 -23,49 -23,77 0,43 16,79 49,107 33,29 81,43 144,43 62,0 117,-14 166,-41 49,-27 84,-64 107,-111 18,-36 26,-90 26,-161l1 -59zm561 479l-150 0 0 -1317 161 0 0 470c69,-86 156,-128 262,-128 58,0 114,12 167,35 52,24 95,57 129,100 34,43 60,94 79,155 20,60 29,124 29,193 0,163 -40,289 -121,378 -81,89 -178,134 -291,134 -112,0 -201,-47 -265,-141l0 121zm-1 -485c0,114 15,197 46,248 51,83 120,124 206,124 71,0 132,-30 183,-92 52,-61 78,-152 78,-274 0,-124 -25,-216 -74,-275 -50,-59 -109,-89 -179,-89 -71,0 -132,31 -183,92 -52,62 -77,150 -77,266zm1526 176l168 22c-26,97 -75,173 -146,226 -71,54 -162,81 -273,81 -139,0 -249,-43 -331,-129 -81,-85 -122,-206 -122,-361 0,-160 41,-284 123,-372 83,-89 190,-133 321,-133 128,0 231,43 312,130 81,87 121,209 121,366 0,9 0,24 -1,43l-711 0c7,104 36,185 89,240 53,56 120,83 199,83 59,0 110,-15 152,-46 42,-32 75,-82 99,-150zm-529 -260l531 0c-7,-80 -27,-140 -61,-180 -51,-62 -118,-94 -200,-94 -74,0 -136,25 -187,75 -50,49 -78,116 -83,199zm899 569l0 -955 146 0 0 146c37,-67 71,-112 103,-134 31,-21 66,-32 103,-32 55,0 111,17 167,51l-58 149c-39,-22 -78,-33 -117,-33 -36,0 -67,11 -95,32 -28,21 -48,51 -60,88 -18,58 -27,121 -27,189l0 499 -162 0zm966 -145l22 143c-45,10 -86,14 -122,14 -58,0 -104,-9 -136,-27 -32,-19 -55,-43 -68,-74 -13,-30 -20,-94 -20,-191l0 -550 -119 0 0 -125 119 0 0 -236 162 -97 0 333 162 0 0 125 -162 0 0 559c0,47 3,76 9,89 5,14 14,24 27,32 13,8 31,12 55,12 18,0 42,-2 71,-7zm99 -333c0,-176 49,-306 147,-391 82,-71 182,-106 300,-106 131,0 239,43 322,129 83,85 125,204 125,355 0,122 -19,219 -56,289 -36,70 -90,125 -160,164 -71,39 -148,58 -231,58 -133,0 -241,-43 -324,-128 -82,-86 -123,-209 -123,-370zm165 1c0,122 27,213 80,273 54,61 121,91 202,91 81,0 147,-30 201,-91 53,-61 80,-154 80,-279 0,-117 -27,-206 -80,-267 -54,-61 -121,-91 -201,-91 -81,0 -148,30 -202,91 -53,60 -80,151 -80,273zm854 192l160 -26c9,64 34,113 75,147 41,34 99,51 172,51 75,0 130,-15 166,-45 36,-30 54,-66 54,-106 0,-37 -16,-66 -48,-86 -23,-15 -78,-33 -166,-55 -118,-30 -200,-56 -246,-78 -46,-22 -80,-52 -104,-90 -23,-39 -35,-81 -35,-128 0,-42 9,-82 29,-118 19,-36 46,-66 79,-90 25,-18 60,-34 103,-47 43,-13 90,-19 139,-19 75,0 141,11 197,32 57,22 98,51 125,88 27,37 46,86 56,148l-158 22c-7,-49 -28,-88 -62,-116 -35,-28 -83,-42 -146,-42 -74,0 -127,13 -159,37 -31,25 -47,53 -47,86 0,21 6,40 20,57 13,17 33,31 61,43 17,6 64,20 143,41 114,31 194,56 239,75 45,19 81,48 107,85 26,37 39,83 39,138 0,53 -16,104 -48,152 -31,47 -76,84 -136,110 -59,26 -126,39 -201,39 -124,0 -219,-26 -284,-77 -65,-52 -106,-128 -124,-228zm1335 140l22 143c-45,10 -86,14 -121,14 -59,0 -104,-9 -137,-27 -32,-19 -55,-43 -68,-74 -13,-30 -19,-94 -19,-191l0 -550 -120 0 0 -125 120 0 0 -236 161 -97 0 333 162 0 0 125 -162 0 0 559c0,47 3,76 9,89 5,14 15,24 28,32 12,8 31,12 55,12 17,0 41,-2 70,-7zm783 145l0 -142c-74,108 -174,162 -302,162 -56,0 -108,-11 -157,-32 -49,-22 -85,-49 -108,-82 -24,-32 -40,-72 -50,-119 -6,-32 -10,-83 -10,-151l0 -591 162 0 0 528c0,85 3,142 10,171 10,42 31,75 65,100 32,24 73,36 121,36 49,0 94,-12 136,-37 43,-25 73,-59 90,-101 18,-43 27,-105 27,-187l0 -510 162 0 0 955 -146 0zm1023 -350l158 22c-17,109 -61,194 -133,256 -71,61 -159,92 -263,92 -130,0 -235,-43 -314,-128 -80,-85 -119,-207 -119,-366 0,-103 17,-193 51,-270 34,-77 86,-135 156,-173 69,-39 145,-58 227,-58 104,0 189,26 254,78 66,53 108,127 127,223l-157 24c-15,-64 -41,-112 -79,-144 -38,-32 -84,-49 -138,-49 -82,0 -148,29 -199,88 -51,58 -77,150 -77,276 0,129 25,221 74,279 49,58 113,87 192,87 64,0 117,-19 159,-58 43,-38 70,-98 81,-179zm920 230c-60,51 -118,87 -174,108 -55,21 -115,32 -178,32 -105,0 -186,-26 -242,-77 -57,-51 -85,-116 -85,-195 0,-47 11,-90 32,-128 21,-39 49,-69 84,-93 34,-23 73,-41 116,-53 32,-8 80,-16 144,-24 131,-15 227,-34 289,-55 1,-23 1,-37 1,-42 0,-66 -15,-112 -46,-139 -41,-37 -103,-55 -185,-55 -76,0 -132,14 -168,40 -37,27 -64,74 -81,142l-158 -22c14,-68 38,-122 71,-164 33,-42 81,-74 143,-96 63,-23 135,-34 217,-34 82,0 148,9 200,29 50,19 88,43 112,72 24,29 41,66 51,110 5,28 8,78 8,149l0 215c0,149 3,244 10,284 6,41 20,79 39,116l-169 0c-16,-34 -27,-74 -31,-120zm-13 -359c-59,24 -147,45 -265,61 -67,10 -114,20 -142,32 -27,12 -48,30 -63,52 -15,23 -23,49 -23,77 0,43 16,79 49,107 33,29 81,43 144,43 62,0 117,-14 166,-41 48,-27 84,-64 107,-111 17,-36 26,-90 26,-161l1 -59zm412 479l0 -955 145 0 0 136c70,-104 172,-156 304,-156 57,0 110,10 158,31 48,20 84,48 108,81 24,33 41,73 51,119 5,30 8,83 8,158l0 586 -161 0 0 -580c0,-66 -7,-116 -19,-148 -13,-33 -35,-59 -67,-78 -32,-20 -69,-29 -112,-29 -69,0 -128,21 -178,65 -50,44 -75,127 -75,249l0 521 -162 0zm962 -478c0,-176 49,-306 148,-391 82,-71 182,-106 300,-106 131,0 238,43 321,129 83,85 125,204 125,355 0,122 -18,219 -55,289 -37,70 -90,125 -161,164 -70,39 -147,58 -230,58 -134,0 -242,-43 -324,-128 -83,-86 -124,-209 -124,-370zm166 1c0,122 27,213 80,273 54,61 121,91 202,91 80,0 147,-30 201,-91 53,-61 80,-154 80,-279 0,-117 -27,-206 -81,-267 -54,-61 -120,-91 -200,-91 -81,0 -148,30 -202,91 -53,60 -80,151 -80,273zm964 477l0 -184 184 0 0 184 -184 0zm404 -478c0,-176 49,-306 148,-391 81,-71 182,-106 300,-106 131,0 238,43 321,129 83,85 125,204 125,355 0,122 -18,219 -55,289 -37,70 -91,125 -161,164 -70,39 -147,58 -230,58 -134,0 -242,-43 -324,-128 -83,-86 -124,-209 -124,-370zm166 1c0,122 26,213 80,273 53,61 120,91 202,91 80,0 147,-30 200,-91 54,-61 80,-154 80,-279 0,-117 -26,-206 -80,-267 -54,-61 -121,-91 -200,-91 -82,0 -149,30 -202,91 -54,60 -80,151 -80,273zm916 477l0 -955 145 0 0 146c37,-67 72,-112 103,-134 32,-21 66,-32 104,-32 55,0 110,17 167,51l-58 149c-39,-22 -79,-33 -118,-33 -35,0 -67,11 -95,32 -27,21 -47,51 -59,88 -18,58 -27,121 -27,189l0 499 -162 0zm584 79l157 22c6,48 25,83 55,106 40,30 95,45 164,45 75,0 133,-15 174,-45 40,-30 68,-72 82,-126 9,-32 13,-101 12,-206 -71,83 -159,125 -264,125 -131,0 -233,-48 -305,-142 -72,-95 -108,-208 -108,-340 0,-91 17,-175 50,-252 32,-77 80,-136 143,-178 62,-42 136,-63 221,-63 112,0 205,46 278,138l0 -118 149 0 0 824c0,149 -15,254 -46,316 -30,62 -78,111 -143,147 -66,36 -146,54 -242,54 -114,0 -205,-26 -275,-77 -70,-51 -104,-128 -102,-230zm133 -573c0,125 25,216 74,273 50,58 113,86 187,86 75,0 137,-28 188,-85 50,-57 75,-147 75,-269 0,-116 -26,-204 -78,-263 -52,-59 -114,-89 -187,-89 -72,0 -133,29 -184,87 -50,59 -75,145 -75,260z"/>
   <circle class="fil0 str0" cx="3018" cy="3018" r="3018"/>
   <g>
    <line class="fil1 str1" x1="4051" y1="2303" x2="4833" y2= "3420" />
    <circle class="fil2 str2" cx="4263" cy="984" r="112"/>
    <circle class="fil2 str2" cx="2805" cy="5576" r="112"/>
    <circle class="fil2 str2" cx="2049" cy="1547" r="112"/>
    <circle class="fil2 str2" cx="4781" cy="3385" r="112"/>
    <circle class="fil2 str2" cx="4773" cy="3941" r="112"/>
    <circle class="fil2 str2" cx="2275" cy="3348" r="112"/>
    <circle class="fil2 str2" cx="1118" cy="3075" r="112"/>
    <circle class="fil2 str2" cx="5077" cy="2707" r="112"/>
    <circle class="fil2 str2" cx="3171" cy="407" r="112"/>
    <circle class="fil2 str2" cx="2859" cy="1175" r="112"/>
    <circle class="fil2 str2" cx="3362" cy="5463" r="112"/>
    <circle class="fil2 str2" cx="3946" cy="2343" r="112"/>
    <circle class="fil2 str2" cx="3239" cy="3894" r="128"/>
    <polyline class="fil1 str2" points="2805,5576 3362,5463 4773,3941 4781,3385 5077,2707 4263,984 3171,407 2859,1175 2049,1547 1118,3075 2275,3348 2781,5599 "/>
    <path class="fil1 str2" d="M2805 5688l502 -1808 639 -1537 -1941 -850 328 1832 904 549 1424 62 -672 -1613 219 -1310c0,0 -1313,167 -1275,172 38,5 448,4342 448,4342"/>
    <line class="fil1 str2" x1="3863" y1="2362" x2="1046" y2= "3104" />
    <line class="fil1 str2" x1="5145" y1="2724" x2="2899" y2= "1173" />
    <line class="fil1 str2" x1="4051" y1="2303" x2="4833" y2= "3420" />
    <polygon class="fil2 str2" points="1200,2975 1241,3035 2215,2777 2020,1674 1996,1667 "/>
    <path class="fil2 str2" d="M3358 3807c15,14 22,33 23,55 418,19 836,37 1254,55 -205,-490 -409,-979 -613,-1469 -37,24 -73,30 -109,21 -185,446 -370,892 -555,1338z"/>
   </g>
   <g>
    <path class="fil3" d="M10339 2979l0 -2604 815 0c406,0 712,109 916,326 204,217 306,542 306,974 0,432 -102,757 -306,976 -204,219 -510,328 -916,328l-815 0zm281 -266l515 0c333,0 575,-83 726,-249 151,-167 226,-430 226,-789 0,-359 -75,-622 -226,-788 -151,-167 -393,-250 -726,-250l-515 0 0 2076zm2974 324c-86,0 -172,-9 -259,-27 -88,-18 -168,-49 -242,-94 -75,-44 -134,-104 -180,-181 -46,-77 -68,-174 -68,-291 0,-161 30,-291 91,-388 62,-98 146,-168 254,-211 108,-43 232,-65 373,-65 107,0 199,7 277,20 78,13 148,32 209,57 61,24 116,52 166,83l54 258c-59,-44 -146,-83 -259,-115 -113,-33 -238,-49 -373,-49 -164,0 -290,31 -379,94 -88,62 -132,153 -132,273 0,96 26,173 80,230 53,58 121,98 203,121 82,24 166,36 251,36 170,0 298,-13 385,-38 87,-24 131,-81 131,-169l0 -894c0,-151 -44,-262 -133,-332 -88,-70 -215,-105 -379,-105 -104,0 -214,15 -329,44 -116,30 -216,78 -299,143l0 -281c81,-52 189,-92 324,-119 135,-28 267,-41 394,-41 86,0 165,8 238,25 73,17 138,42 195,74 58,33 106,75 147,125 40,51 71,110 94,176 22,66 33,141 33,224l0 945c0,138 -41,241 -123,308 -82,68 -189,112 -320,133 -132,21 -273,31 -424,31zm2299 0c-93,0 -192,-13 -296,-41 -104,-27 -203,-78 -295,-152 -92,-74 -168,-181 -227,-320 -58,-139 -87,-321 -87,-544 0,-302 73,-541 220,-717 147,-175 370,-263 670,-263 57,0 125,8 203,23 78,16 154,35 230,59 75,23 138,48 187,74l-97 97 0 -1046 281 0 0 2436c0,73 -26,135 -76,186 -51,50 -117,91 -197,121 -81,29 -167,52 -258,66 -91,14 -177,21 -258,21zm4 -257c136,0 253,-16 353,-47 101,-31 151,-70 151,-117l0 -1222c-81,-47 -167,-81 -260,-103 -92,-23 -180,-34 -263,-34 -141,0 -255,31 -342,92 -87,61 -151,146 -191,254 -40,108 -61,233 -61,377 0,140 16,271 47,392 31,121 91,219 180,295 88,75 217,113 386,113zm2210 257c-305,0 -531,-90 -678,-271 -147,-181 -220,-433 -220,-755 0,-339 77,-592 232,-761 155,-170 374,-254 658,-254 211,0 382,42 515,127 133,84 230,203 293,355 62,152 93,330 93,533 0,320 -77,571 -232,753 -155,182 -375,273 -661,273zm-4 -257c158,0 282,-35 370,-104 89,-69 152,-161 190,-277 38,-116 56,-245 56,-388 0,-154 -19,-287 -58,-400 -39,-114 -104,-201 -193,-264 -90,-62 -212,-94 -365,-94 -156,0 -279,34 -367,102 -89,68 -152,158 -190,271 -37,113 -56,242 -56,385 0,229 45,414 136,556 92,142 250,213 477,213zm1975 257c-141,0 -258,-14 -353,-43 -95,-28 -194,-69 -295,-121l0 -296c81,44 152,82 215,113 62,31 126,54 191,68 65,15 139,22 222,22 130,0 236,-29 318,-86 82,-57 123,-132 123,-223 0,-73 -20,-128 -60,-168 -40,-39 -92,-71 -154,-97 -63,-26 -128,-53 -195,-82 -76,-21 -152,-44 -229,-68 -77,-25 -147,-58 -211,-98 -63,-40 -115,-92 -154,-156 -39,-64 -58,-146 -58,-248 0,-99 20,-183 60,-254 40,-70 93,-128 158,-173 65,-46 138,-79 219,-100 81,-21 161,-31 242,-31 117,0 217,15 300,47 84,31 170,66 258,105l0 281c-99,-52 -187,-94 -265,-127 -78,-32 -171,-49 -278,-49 -106,0 -202,22 -286,65 -85,43 -127,109 -127,197 0,73 21,131 64,174 43,43 100,76 170,101 70,25 146,49 226,72 65,21 133,44 203,69 71,24 136,57 195,97 60,41 109,93 147,158 38,65 56,149 56,250 0,138 -35,252 -105,342 -70,90 -159,155 -267,197 -108,42 -218,62 -330,62z"/>
    <path class="fil0" d="M7353 5809l0 -2785 -1097 0 0 -316 2525 0 0 316 -1093 0 0 2785 -335 0zm2399 70c-204,0 -379,-36 -525,-107 -146,-71 -256,-175 -332,-312 -76,-136 -114,-303 -114,-502l0 -1469 334 0 0 1395c0,235 52,408 156,518 104,110 264,165 481,165 217,0 378,-55 482,-165 103,-110 155,-283 155,-518l0 -1395 335 0 0 1469c0,295 -84,522 -253,681 -169,160 -409,240 -719,240zm2688 -33c-124,0 -251,-16 -379,-49 -129,-32 -247,-91 -354,-176 -106,-85 -192,-207 -258,-365 -65,-158 -97,-361 -97,-609 0,-248 32,-450 97,-607 66,-157 152,-278 258,-365 107,-87 225,-146 354,-179 128,-33 255,-49 379,-49 118,0 235,11 351,33 116,21 228,54 337,97l0 321c-102,-43 -208,-76 -316,-97 -109,-22 -220,-33 -335,-33 -276,0 -477,70 -602,209 -126,140 -188,363 -188,670 0,310 62,534 188,672 125,137 326,206 602,206 115,0 226,-10 335,-32 108,-22 214,-54 316,-98l0 326c-109,40 -221,71 -337,93 -116,21 -233,32 -351,32zm2115 33c-102,0 -205,-11 -309,-33 -104,-21 -200,-59 -288,-111 -89,-53 -160,-125 -214,-217 -54,-91 -82,-206 -82,-346 0,-192 37,-346 110,-463 73,-116 173,-199 302,-251 129,-51 277,-76 444,-76 127,0 237,7 330,23 93,15 176,38 249,67 73,30 139,63 197,100l65 307c-71,-53 -174,-98 -309,-137 -135,-39 -283,-58 -444,-58 -195,0 -345,37 -451,112 -105,74 -158,182 -158,325 0,115 32,206 96,274 63,68 144,116 241,144 98,28 198,42 300,42 202,0 354,-14 458,-44 104,-29 156,-97 156,-202l0 -1065c0,-180 -53,-311 -158,-395 -106,-84 -256,-126 -451,-126 -124,0 -255,18 -393,54 -138,36 -256,92 -356,170l0 -335c96,-62 225,-109 386,-142 161,-33 318,-49 470,-49 102,0 197,10 283,30 87,21 165,50 233,89 68,39 126,88 174,149 48,60 85,130 112,209 26,79 39,168 39,267l0 1125c0,164 -49,287 -146,368 -98,80 -225,133 -381,158 -157,24 -325,37 -505,37zm1776 -2204c75,-37 151,-70 230,-100 79,-29 160,-53 242,-72 82,-19 166,-33 251,-42 85,-9 171,-14 258,-14 226,0 406,34 540,100 133,67 230,164 290,291 61,127 91,280 91,460l0 1511 -335 0 0 -1511c0,-56 -7,-115 -21,-177 -14,-62 -41,-121 -81,-179 -41,-57 -103,-103 -186,-139 -84,-36 -196,-54 -335,-54 -96,0 -195,8 -298,24 -102,15 -206,38 -311,69l0 1967 -335 0 0 -2134zm3599 2204c-363,0 -632,-108 -807,-323 -175,-216 -263,-516 -263,-900 0,-403 93,-705 277,-907 184,-201 446,-302 783,-302 252,0 456,51 614,151 158,101 274,242 349,423 74,182 111,393 111,635 0,381 -92,680 -276,897 -185,217 -447,326 -788,326zm-5 -307c189,0 336,-41 442,-123 105,-82 180,-192 225,-330 45,-138 68,-293 68,-463 0,-183 -24,-342 -70,-477 -47,-134 -123,-239 -230,-313 -107,-75 -252,-112 -435,-112 -186,0 -332,40 -437,121 -105,81 -180,188 -225,323 -45,135 -68,288 -68,458 0,273 54,494 163,663 108,168 297,253 567,253z"/>
    <path class="fil3 str3" d="M14174 1918c0,0 3,-1 3,-1l38 21 68 259 -20 10 -85 -59 -6 -12 -2 -216 4 -2z"/>
    <path class="fil0 str0" d="M15242 4547c1,1 13,-6 13,-6l45 26 74 319c0,0 -45,-2 -48,-2 -3,-1 -72,-58 -72,-58l-14 -29c0,0 2,-250 2,-250z"/>
    <path class="fil3 str3" d="M16398 1114c1,0 5,-3 5,-3 0,0 130,38 128,37 -2,-1 -126,121 -126,121l-28 -38 17 -115 4 -2z"/>
   </g>
  </g>
 </g>
</svg>
