<?xml version="1.0" encoding="UTF-8"?>
<!DOCTYPE svg PUBLIC "-//W3C//DTD SVG 1.1//EN" "http://www.w3.org/Graphics/SVG/1.1/DTD/svg11.dtd">
<!-- Creator: CorelDRAW X7 -->
<svg xmlns="http://www.w3.org/2000/svg" xml:space="preserve" width="21120px" height="6036px" version="1.1" style="shape-rendering:geometricPrecision; text-rendering:geometricPrecision; image-rendering:optimizeQuality; fill-rule:evenodd; clip-rule:evenodd"
viewBox="0 0 21120 6036"
 xmlns:xlink="http://www.w3.org/1999/xlink">
 <defs>
  <style type="text/css">
   <![CDATA[
    .str2 {stroke:#FEFEFE;stroke-width:35.4331}
    .str1 {stroke:#373435;stroke-width:35.4331}
    .str0 {stroke:#00587A;stroke-width:2.3622}
    .str3 {stroke:#008891;stroke-width:0.9}
    .fil1 {fill:none}
    .fil2 {fill:#FEFEFE}
    .fil0 {fill:#00587A}
    .fil3 {fill:#008891}
   ]]>
  </style>
 </defs>
 <g id="Camada_x0020_1">
  <metadata id="CorelCorpID_0Corel-Layer"/>
  <g id="_3066072721888">
   <circle class="fil0 str0" cx="3081" cy="3018" r="3018"/>
   <g>
    <line class="fil1 str1" x1="4114" y1="2303" x2="4895" y2= "3420" />
    <circle class="fil2 str2" cx="4325" cy="984" r="112"/>
    <circle class="fil2 str2" cx="2868" cy="5576" r="112"/>
    <circle class="fil2 str2" cx="2111" cy="1547" r="112"/>
    <circle class="fil2 str2" cx="4844" cy="3385" r="112"/>
    <circle class="fil2 str2" cx="4836" cy="3941" r="112"/>
    <circle class="fil2 str2" cx="2337" cy="3348" r="112"/>
    <circle class="fil2 str2" cx="1181" cy="3075" r="112"/>
    <circle class="fil2 str2" cx="5140" cy="2707" r="112"/>
    <circle class="fil2 str2" cx="3234" cy="407" r="112"/>
    <circle class="fil2 str2" cx="2922" cy="1175" r="112"/>
    <circle class="fil2 str2" cx="3425" cy="5463" r="112"/>
    <circle class="fil2 str2" cx="4009" cy="2343" r="112"/>
    <circle class="fil2 str2" cx="3302" cy="3894" r="128"/>
    <polyline class="fil1 str2" points="2868,5576 3425,5463 4836,3941 4844,3385 5140,2707 4325,984 3234,407 2922,1175 2111,1547 1181,3075 2337,3348 2844,5599 "/>
    <path class="fil1 str2" d="M2868 5688l502 -1808 639 -1537 -1941 -850 327 1832 905 549 1424 62 -672 -1613 218 -1310c0,0 -1312,167 -1274,172 37,5 448,4342 448,4342"/>
    <line class="fil1 str2" x1="3925" y1="2362" x2="1109" y2= "3105" />
    <line class="fil1 str2" x1="5208" y1="2725" x2="2962" y2= "1173" />
    <line class="fil1 str2" x1="4114" y1="2303" x2="4895" y2= "3420" />
    <polygon class="fil2 str2" points="1263,2975 1304,3035 2278,2777 2083,1674 2059,1667 "/>
    <path class="fil2 str2" d="M3420 3807c15,14 22,33 24,56 418,18 836,36 1253,54 -204,-490 -408,-979 -612,-1469 -37,24 -73,30 -109,21 -185,446 -370,892 -556,1338z"/>
   </g>
   <g>
    <path class="fil3" d="M10401 2979l0 -2604 816 0c406,0 711,109 916,326 204,218 306,542 306,974 0,432 -102,757 -306,976 -205,219 -510,328 -916,328l-816 0zm282 -266l515 0c333,0 575,-83 726,-249 151,-167 226,-430 226,-789 0,-359 -75,-622 -226,-788 -151,-167 -393,-250 -726,-250l-515 0 0 2076zm2974 324c-86,0 -172,-9 -260,-27 -87,-18 -167,-49 -242,-94 -74,-44 -134,-104 -179,-181 -46,-77 -68,-174 -68,-291 0,-161 30,-291 91,-388 61,-98 146,-168 254,-211 108,-43 232,-64 373,-64 106,0 199,6 277,19 78,13 148,32 209,57 61,24 116,52 166,84l54 257c-60,-44 -146,-82 -259,-115 -113,-32 -238,-49 -373,-49 -164,0 -290,31 -379,94 -88,62 -132,153 -132,273 0,96 26,173 80,230 53,58 121,98 203,121 82,24 165,36 251,36 169,0 298,-13 385,-37 87,-25 131,-82 131,-170l0 -894c0,-151 -45,-262 -133,-332 -89,-70 -215,-105 -379,-105 -104,0 -214,15 -330,45 -115,29 -215,77 -298,142l0 -281c80,-52 188,-92 324,-119 135,-27 267,-41 394,-41 86,0 165,8 238,25 73,17 138,42 195,74 58,33 106,75 147,125 40,51 71,110 93,176 23,66 34,141 34,224l0 945c0,138 -41,241 -123,309 -82,67 -189,111 -320,132 -132,21 -273,31 -424,31zm2299 0c-94,0 -192,-13 -297,-41 -104,-27 -202,-78 -294,-152 -93,-74 -168,-181 -227,-320 -58,-139 -87,-321 -87,-544 0,-302 73,-541 220,-717 147,-175 370,-263 670,-263 57,0 124,8 203,23 78,16 154,35 230,59 75,23 138,48 187,74l-97 98 0 -1047 281 0 0 2436c0,73 -26,135 -76,186 -51,50 -117,91 -198,121 -80,30 -166,52 -257,66 -91,14 -177,21 -258,21zm4 -257c135,0 253,-16 353,-47 101,-31 151,-70 151,-117l0 -1222c-81,-47 -168,-81 -260,-103 -92,-22 -180,-34 -263,-34 -141,0 -255,31 -342,92 -87,61 -151,146 -191,254 -41,108 -61,233 -61,377 0,140 16,271 47,392 31,121 91,219 180,295 88,75 217,113 386,113zm2209 257c-304,0 -530,-90 -677,-271 -147,-181 -220,-432 -220,-755 0,-338 77,-592 232,-761 155,-170 374,-254 658,-254 210,0 382,42 515,127 133,84 230,203 293,355 62,152 93,330 93,533 0,320 -77,571 -232,753 -155,182 -375,273 -662,273zm-3 -257c158,0 282,-35 370,-104 89,-69 152,-161 190,-277 37,-116 56,-245 56,-388 0,-154 -19,-287 -58,-400 -39,-113 -104,-201 -194,-264 -89,-62 -211,-93 -364,-93 -157,0 -279,33 -367,101 -89,68 -152,158 -190,271 -37,114 -56,242 -56,385 0,229 45,414 136,556 91,142 250,213 477,213zm1975 257c-141,0 -259,-14 -354,-42 -95,-29 -193,-69 -294,-121l0 -297c80,44 152,82 214,113 63,31 127,54 192,68 65,15 139,22 222,22 130,0 236,-29 318,-86 82,-57 123,-131 123,-223 0,-72 -20,-128 -60,-167 -41,-39 -92,-72 -154,-98 -63,-26 -128,-53 -196,-82 -75,-21 -151,-44 -228,-68 -77,-25 -147,-58 -211,-98 -64,-40 -115,-92 -154,-156 -39,-64 -58,-146 -58,-248 0,-99 20,-183 60,-254 40,-70 93,-128 158,-173 65,-46 138,-79 219,-100 80,-21 161,-31 242,-31 117,0 217,16 300,47 84,31 169,66 258,105l0 281c-99,-52 -187,-94 -266,-127 -78,-32 -170,-48 -277,-48 -106,0 -202,21 -287,64 -84,43 -126,109 -126,197 0,73 21,131 64,174 43,43 100,77 170,101 70,25 146,49 226,72 65,21 133,44 203,69 70,25 135,57 195,97 60,41 109,93 147,158 37,66 56,149 56,250 0,138 -35,252 -105,342 -70,90 -159,155 -267,197 -108,42 -218,62 -330,62z"/>
    <path class="fil0" d="M7416 5809l0 -2785 -1097 0 0 -316 2525 0 0 316 -1093 0 0 2785 -335 0zm2399 70c-204,0 -379,-36 -525,-107 -146,-71 -257,-175 -332,-312 -76,-136 -114,-303 -114,-502l0 -1469 334 0 0 1395c0,235 52,408 156,518 104,110 264,165 481,165 217,0 378,-55 482,-165 103,-110 155,-283 155,-518l0 -1395 335 0 0 1469c0,295 -84,522 -253,681 -169,160 -409,240 -719,240zm2688 -33c-124,0 -251,-16 -379,-48 -129,-33 -247,-92 -354,-177 -107,-85 -193,-207 -258,-365 -65,-158 -97,-361 -97,-609 0,-248 32,-450 97,-607 65,-156 151,-278 258,-365 107,-87 225,-146 354,-179 128,-32 255,-49 379,-49 117,0 234,11 351,33 116,22 228,54 337,97l0 321c-103,-43 -208,-76 -316,-97 -109,-22 -221,-33 -335,-33 -276,0 -477,70 -602,209 -126,140 -189,363 -189,670 0,310 63,534 189,672 125,138 326,207 602,207 114,0 226,-11 335,-33 108,-22 213,-54 316,-98l0 326c-109,40 -221,71 -337,93 -117,21 -234,32 -351,32zm2115 33c-102,0 -205,-11 -309,-33 -104,-21 -200,-59 -288,-111 -89,-53 -160,-125 -214,-216 -55,-92 -82,-207 -82,-347 0,-192 37,-346 110,-462 72,-117 173,-200 302,-251 128,-52 276,-77 444,-77 127,0 237,8 330,23 93,16 176,38 249,67 73,30 138,63 197,100l65 307c-71,-52 -174,-98 -309,-137 -135,-39 -283,-58 -444,-58 -195,0 -345,37 -451,112 -105,74 -158,182 -158,325 0,115 32,206 95,274 64,69 145,117 242,144 98,28 198,42 300,42 202,0 354,-14 458,-44 104,-29 156,-97 156,-202l0 -1065c0,-180 -53,-311 -158,-395 -106,-84 -256,-125 -451,-125 -124,0 -255,17 -393,53 -138,36 -257,92 -356,170l0 -335c96,-62 225,-109 386,-142 161,-32 318,-49 470,-49 102,0 196,10 283,31 87,20 165,49 233,88 68,39 126,88 174,149 48,60 85,130 112,209 26,79 39,168 39,267l0 1125c0,165 -49,287 -146,368 -98,80 -225,133 -382,158 -156,24 -324,37 -504,37zm1776 -2204c74,-37 151,-70 230,-100 79,-29 160,-53 242,-72 82,-19 166,-32 251,-42 85,-9 171,-14 258,-14 226,0 406,34 539,100 134,67 231,164 291,291 60,127 91,280 91,460l0 1511 -335 0 0 -1511c0,-56 -7,-115 -21,-177 -14,-62 -41,-121 -81,-179 -41,-57 -103,-103 -186,-139 -84,-36 -196,-53 -335,-53 -96,0 -195,7 -298,23 -102,15 -206,38 -311,69l0 1967 -335 0 0 -2134zm3599 2204c-363,0 -632,-108 -807,-323 -175,-216 -263,-516 -263,-900 0,-403 92,-705 277,-906 184,-202 445,-303 783,-303 251,0 456,51 614,151 158,101 274,242 349,423 74,182 111,393 111,635 0,381 -92,680 -276,897 -185,217 -447,326 -788,326zm-5 -307c189,0 336,-41 442,-123 105,-82 180,-192 225,-330 45,-138 68,-292 68,-463 0,-183 -24,-342 -70,-476 -47,-135 -123,-240 -230,-314 -107,-75 -252,-112 -435,-112 -186,0 -332,40 -437,121 -105,81 -181,188 -226,323 -45,135 -67,288 -67,458 0,273 54,494 163,663 108,169 297,253 567,253z"/>
    <path class="fil3 str3" d="M14237 1918c0,0 3,-1 3,-1l38 21 68 259 -20 10 -85 -59 -6 -12 -3 -216 5 -2z"/>
    <path class="fil0 str0" d="M15305 4548c1,0 13,-7 13,-7l45 26 74 319c0,0 -45,-2 -48,-2 -4,-1 -72,-58 -72,-58l-14 -29c0,0 2,-249 2,-249z"/>
    <path class="fil3 str3" d="M16461 1114c1,0 5,-3 5,-3 0,0 130,38 128,37 -2,-1 -127,121 -127,121l-27 -38 17 -115 4 -2z"/>
   </g>
  </g>
 </g>
</svg>
